<svg width="56" height="50" viewBox="0 0 56 50" fill="none" xmlns="http://www.w3.org/2000/svg">
<g id="Button">
<rect id="Fill" width="56" height="50" rx="5" fill="#F85A47"/>
<path id="Arrow 7" d="M22 24.5C21.7239 24.5 21.5 24.7239 21.5 25C21.5 25.2761 21.7239 25.5 22 25.5V24.5ZM34.3536 25.3536C34.5488 25.1583 34.5488 24.8417 34.3536 24.6464L31.1716 21.4645C30.9763 21.2692 30.6597 21.2692 30.4645 21.4645C30.2692 21.6597 30.2692 21.9763 30.4645 22.1716L33.2929 25L30.4645 27.8284C30.2692 28.0237 30.2692 28.3403 30.4645 28.5355C30.6597 28.7308 30.9763 28.7308 31.1716 28.5355L34.3536 25.3536ZM22 25.5H34V24.5H22V25.5Z" fill="white"/>
</g>
</svg>
