<svg width="32" height="30" viewBox="0 0 32 30" fill="none" xmlns="http://www.w3.org/2000/svg">
<g id="Icon">
<path d="M3.51951 15.5792V29.0648C3.51951 29.3109 3.61693 29.5537 3.78924 29.7274C3.96155 29.9011 4.20013 30 4.44467 30H11.8947V20.0979C11.8947 19.8507 11.9915 19.608 12.1644 19.4346C12.3361 19.2599 12.5753 19.16 12.8175 19.16H19.1807C19.4249 19.16 19.6615 19.2602 19.8348 19.4346C20.0074 19.608 20.1045 19.8504 20.1045 20.0979V30H27.5559C27.8014 30 28.035 29.9044 28.2096 29.7274C28.3823 29.5507 28.4794 29.3146 28.4794 29.0648V15.5617L15.8647 5.63679L3.51951 15.5792Z" fill="black"/>
<path d="M31.2777 11.4022L17.1272 0.38779C16.4638 -0.129263 15.5347 -0.129263 14.8703 0.38779L7.29041 6.28797V3.30871H3.5891V9.16798L0.72182 11.4012C-0.0873665 12.0319 -0.239462 13.2078 0.383831 14.0263C0.747004 14.5055 1.2964 14.757 1.85011 14.757C2.0529 14.757 2.25636 14.7224 2.45286 14.6544L15.4297 4.20601C15.6795 4.00415 16.0308 4.00214 16.2813 4.1993L29.5752 14.6581C30.3002 14.8965 31.124 14.6735 31.616 14.0263C32.2397 13.2078 32.0872 12.0322 31.2777 11.4022Z" fill="black"/>
</g>
</svg>
