<svg width="26" height="30" viewBox="0 0 26 30" fill="none" xmlns="http://www.w3.org/2000/svg">
<g id="Icon">
<path d="M0.588757 30H25.4112C25.7351 30 26 29.736 26 29.4V25.728C26 21.96 23.6331 18.666 20.1064 17.526C19.8827 17.46 19.6354 17.526 19.4823 17.706C18.1929 19.218 16.0263 21.018 13 21.018C9.97373 21.018 7.80116 19.218 6.51176 17.706C6.3587 17.526 6.11729 17.454 5.89357 17.526C2.36685 18.666 0 21.96 0 25.728V29.4C0 29.736 0.259027 30 0.588757 30Z" fill="black"/>
<path d="M5.64041 8.89202C5.64628 8.91001 5.65219 8.91599 5.65219 8.93402C6.11729 13.512 9.16121 18.33 13 18.33C17.1744 18.33 20.4126 12.636 20.4126 7.73999C20.4126 3.042 17.5041 0 13 0C8.49592 0 5.58154 3.042 5.58154 7.73999C5.58154 8.11203 5.61097 8.48997 5.64628 8.868C5.64628 8.88001 5.64041 8.88599 5.64041 8.89202ZM10.8039 6.66599C11.9285 7.75199 14.6191 9.78602 19.0172 9.78602C19.0231 9.78602 19.029 9.78602 19.029 9.78602C18.3401 13.476 15.9144 17.13 13 17.13C9.97373 17.13 7.47147 13.2 6.88858 9.36598C9.05524 9.00001 10.2446 7.59597 10.8039 6.66599Z" fill="black"/>
</g>
</svg>
