<svg width="133" height="17" viewBox="0 0 133 17" fill="none" xmlns="http://www.w3.org/2000/svg">
<g id="Payment method">
<g id="Logo">
<path d="M56.5573 12.8333H59.0053L60.5355 3.17262H58.0873L56.5573 12.8333Z" fill="#101130"/>
<path d="M52.1642 9.81732L54.498 3.17262H57.1325L53.2379 12.8336H50.6874L48.5606 4.44042C47.1798 3.58842 46 3.3362 46 3.3362L46.0001 3.33596C46 3.33595 46 3.33594 46 3.33594L46.0453 3.17236H49.9034C50.965 3.17236 51.0646 4.0422 51.0646 4.0422L51.8883 8.38672C51.8883 8.38672 51.8883 8.38659 51.8882 8.38633L51.8883 8.38698L51.8881 8.38646L52.1642 9.81732Z" fill="#101130"/>
<path fill-rule="evenodd" clip-rule="evenodd" d="M76 12.8333H73.7523L73.4655 11.3983H70.3536L69.8433 12.8333H67.2915L70.9424 3.89232C70.9424 3.89232 71.1637 3.17236 72.0724 3.17236H74.0402L76 12.8333ZM72.3448 5.80073L71.0586 9.416H73.0684L72.3448 5.80073Z" fill="#101130"/>
<path d="M67.8322 3.42122L67.4829 5.4958C66.4354 4.90273 64.0513 4.76241 64.0511 5.85474C64.0511 6.28869 64.5905 6.58713 65.2406 6.94684C66.2266 7.49236 67.4673 8.17879 67.4673 9.69251C67.4673 12.1113 64.9472 13 63.2767 13C61.6066 13 60.5136 12.4545 60.5136 12.4545L60.8775 10.2853C61.8798 11.112 64.9168 11.3469 64.9168 10.0359C64.9168 9.48507 64.3189 9.16021 63.6257 8.7835C62.6691 8.26371 61.5309 7.64523 61.5309 6.19818C61.5309 3.54552 64.4157 3 65.6305 3C66.7543 3 67.8322 3.42122 67.8322 3.42122Z" fill="#101130"/>
</g>
<g id="Logo_2">
<path fill-rule="evenodd" clip-rule="evenodd" d="M97.5941 3H100.447C101.454 3 102.125 3.25194 102.628 3.67211C102.964 4.09228 103.132 4.7648 102.964 5.52103C102.712 7.36995 101.621 8.294 99.6916 8.294H98.7687C98.6429 8.294 98.5381 8.33585 98.4647 8.39904C98.3912 8.46223 98.3492 8.54635 98.3492 8.63046L98.0136 10.6472C97.9297 10.815 97.7619 10.9833 97.5941 10.9833H96.2517C96.0839 10.9833 96 10.8991 96 10.7313L97.1746 3.33606C97.2585 3.16823 97.4263 3 97.5941 3ZM99.1043 6.78154C99.8594 6.78154 100.615 6.78154 100.782 5.77297C100.829 5.54031 100.824 5.35936 100.796 5.23011C100.773 5.12548 100.736 5.05449 100.698 5.01674C100.447 4.68069 99.9433 4.68069 99.4399 4.68069H99.2721C99.1043 4.68069 99.0204 4.7648 99.0204 4.84892L98.6848 6.78154H99.1043Z" fill="#101130"/>
<path fill-rule="evenodd" clip-rule="evenodd" d="M118.15 3H121.002C121.925 3 122.68 3.25194 123.184 3.67211C123.519 4.09228 123.687 4.7648 123.519 5.52103C123.268 7.36995 122.177 8.294 120.247 8.294H119.324C119.073 8.294 118.905 8.46223 118.905 8.63046L118.569 10.7313C118.569 10.8991 118.485 10.9833 118.317 10.9833H116.807C116.639 10.9833 116.556 10.8991 116.556 10.7313L117.73 3.33606C117.814 3.16823 117.982 3 118.15 3ZM119.66 6.78154C120.415 6.78154 121.17 6.78154 121.338 5.77297C121.338 5.3528 121.338 5.10086 121.17 5.01674C120.918 4.68069 120.415 4.68069 119.912 4.68069H119.744C119.576 4.68069 119.492 4.7648 119.492 4.84892L119.156 6.78154H119.66Z" fill="#101130"/>
<path fill-rule="evenodd" clip-rule="evenodd" d="M109.088 5.68926H107.746C107.662 5.68926 107.494 5.77297 107.494 5.85708L107.41 6.27726L107.327 6.10943C106.991 5.68926 106.404 5.52103 105.732 5.52103C104.222 5.52103 102.88 6.69743 102.628 8.294C102.46 9.13434 102.712 9.89098 103.132 10.3949C103.551 10.8991 104.138 11.0674 104.893 11.0674C106.152 11.0674 106.823 10.3111 106.823 10.3111L106.739 10.7313C106.739 10.8991 106.823 10.9833 106.991 10.9833H108.249C108.274 10.9833 108.298 10.9796 108.321 10.973C108.341 10.9677 108.36 10.9607 108.378 10.9521C108.413 10.9361 108.446 10.9147 108.477 10.8893C108.556 10.8253 108.624 10.7362 108.669 10.6472L109.424 5.9412C109.34 5.85708 109.172 5.68926 109.088 5.68926ZM107.159 8.37811C106.991 9.13434 106.404 9.72274 105.565 9.72274C105.145 9.72274 104.81 9.55451 104.642 9.38669C104.474 9.13434 104.39 8.79829 104.39 8.37811C104.474 7.62189 105.145 7.03348 105.9 7.03348C106.32 7.03348 106.571 7.20172 106.823 7.36995C107.075 7.62189 107.159 8.04206 107.159 8.37811Z" fill="#101130"/>
<path fill-rule="evenodd" clip-rule="evenodd" d="M128.218 5.68926H129.56C129.633 5.68926 129.69 5.72086 129.738 5.76353C129.758 5.78158 129.777 5.8021 129.795 5.82262C129.832 5.86488 129.864 5.9092 129.896 5.9412L129.141 10.6472C129.107 10.7145 129.06 10.7818 129.005 10.838C128.922 10.9225 128.822 10.9833 128.721 10.9833H127.463C127.295 10.9833 127.211 10.8991 127.211 10.7313L127.295 10.3111C127.295 10.3111 126.624 11.0674 125.365 11.0674C124.61 11.0674 124.023 10.8991 123.603 10.3949C123.184 9.89098 122.932 9.13434 123.1 8.294C123.351 6.69743 124.694 5.52103 126.204 5.52103C126.875 5.52103 127.463 5.68926 127.798 6.10943L127.882 6.27726L127.966 5.85708C127.966 5.77297 128.134 5.68926 128.218 5.68926ZM126.036 9.72274C126.875 9.72274 127.463 9.13434 127.63 8.37811C127.714 8.04206 127.63 7.62189 127.295 7.36995C127.043 7.20172 126.791 7.03348 126.372 7.03348C125.617 7.03348 124.946 7.62189 124.862 8.37811C124.862 8.79829 124.946 9.13434 125.113 9.38669C125.281 9.55451 125.617 9.72274 126.036 9.72274Z" fill="#101130"/>
<path d="M116.388 5.68885H114.962C114.794 5.68885 114.71 5.77297 114.626 5.85708L112.78 8.71417L111.941 6.02491C111.857 5.85708 111.773 5.77297 111.522 5.77297H110.179C110.094 5.77297 110.031 5.81605 109.989 5.88006C109.948 5.94284 109.928 6.02573 109.928 6.10902L111.438 10.5627L110.011 12.5798C109.928 12.7477 110.011 13 110.179 13H111.522C111.689 13 111.773 12.9159 111.857 12.8318L116.472 6.19314C116.723 5.94079 116.556 5.68885 116.388 5.68885Z" fill="#101130"/>
<path d="M130.231 11.067C130.063 11.067 129.98 10.9833 129.98 10.815L131.154 3.25194C131.238 3.08371 131.322 3 131.406 3.08371H132.748C132.85 3.08371 132.921 3.11489 132.961 3.17726C132.987 3.21706 133 3.26999 133 3.33606L131.825 10.7309C131.741 10.8991 131.574 11.067 131.406 11.067H130.231Z" fill="#101130"/>
</g>
<g id="Logo_3">
<path id="Vector" d="M26.0009 8.05565C26.0009 12.5048 22.401 16.1114 17.9604 16.1114C13.5198 16.1114 9.91992 12.5048 9.91992 8.05565C9.91992 3.60664 13.5198 0 17.9604 0C22.401 0 26.0009 3.60664 26.0009 8.05565Z" fill="#F79F1A"/>
<path id="Vector_2" d="M16.0809 8.05565C16.0809 12.5048 12.4811 16.1114 8.04043 16.1114C3.59983 16.1114 0 12.5048 0 8.05565C0 3.60664 3.59983 0 8.04043 0C12.4811 0 16.0809 3.60664 16.0809 8.05565Z" fill="#EA001B"/>
<path id="Vector_3" d="M13.0002 1.71436C11.1242 3.18908 9.91992 5.48078 9.91992 8.05516C9.91992 10.6295 11.1242 12.9229 13.0002 14.3976C14.8762 12.9229 16.0805 10.6295 16.0805 8.05516C16.0805 5.48078 14.8762 3.18908 13.0002 1.71436Z" fill="#FF5F01"/>
</g>
</g>
</svg>
