<svg width="95" height="15" viewBox="0 0 95 15" fill="none" xmlns="http://www.w3.org/2000/svg">
<g id="Review">
<path id="Star 6" d="M7.03834 1.10996C7.20914 0.699319 7.79086 0.699318 7.96166 1.10996L9.36649 4.48759C9.4385 4.6607 9.6013 4.77899 9.7882 4.79397L13.4346 5.08631C13.878 5.12185 14.0577 5.6751 13.7199 5.96444L10.9418 8.34425C10.7994 8.46623 10.7372 8.65762 10.7807 8.84L11.6295 12.3983C11.7327 12.8309 11.262 13.1728 10.8825 12.941L7.76063 11.0342C7.60062 10.9365 7.39938 10.9365 7.23937 11.0342L4.11752 12.941C3.73797 13.1728 3.26735 12.8309 3.37054 12.3983L4.21932 8.84C4.26283 8.65762 4.20064 8.46623 4.05825 8.34425L1.28005 5.96444C0.942286 5.6751 1.12205 5.12185 1.56538 5.08631L5.2118 4.79397C5.3987 4.77899 5.5615 4.6607 5.63351 4.48759L7.03834 1.10996Z" fill="#F7AA00"/>
<path id="Star 7" d="M27.0383 1.10996C27.2091 0.699319 27.7909 0.699318 27.9617 1.10996L29.3665 4.48759C29.4385 4.6607 29.6013 4.77899 29.7882 4.79397L33.4346 5.08631C33.878 5.12185 34.0577 5.6751 33.7199 5.96444L30.9418 8.34425C30.7994 8.46623 30.7372 8.65762 30.7807 8.84L31.6295 12.3983C31.7327 12.8309 31.262 13.1728 30.8825 12.941L27.7606 11.0342C27.6006 10.9365 27.3994 10.9365 27.2394 11.0342L24.1175 12.941C23.738 13.1728 23.2673 12.8309 23.3705 12.3983L24.2193 8.84C24.2628 8.65762 24.2006 8.46623 24.0582 8.34425L21.2801 5.96444C20.9423 5.6751 21.122 5.12185 21.5654 5.08631L25.2118 4.79397C25.3987 4.77899 25.5615 4.6607 25.6335 4.48759L27.0383 1.10996Z" fill="#F7AA00"/>
<path id="Star 8" d="M47.0383 1.10996C47.2091 0.699319 47.7909 0.699318 47.9617 1.10996L49.3665 4.48759C49.4385 4.6607 49.6013 4.77899 49.7882 4.79397L53.4346 5.08631C53.878 5.12185 54.0577 5.6751 53.7199 5.96444L50.9418 8.34425C50.7994 8.46623 50.7372 8.65762 50.7807 8.84L51.6295 12.3983C51.7327 12.8309 51.262 13.1728 50.8825 12.941L47.7606 11.0342C47.6006 10.9365 47.3994 10.9365 47.2394 11.0342L44.1175 12.941C43.738 13.1728 43.2673 12.8309 43.3705 12.3983L44.2193 8.84C44.2628 8.65762 44.2006 8.46623 44.0582 8.34425L41.2801 5.96444C40.9423 5.6751 41.122 5.12185 41.5654 5.08631L45.2118 4.79397C45.3987 4.77899 45.5615 4.6607 45.6335 4.48759L47.0383 1.10996Z" fill="#F7AA00"/>
<path id="Star 9" d="M67.0383 1.10996C67.2091 0.699319 67.7909 0.699318 67.9617 1.10996L69.3665 4.48759C69.4385 4.6607 69.6013 4.77899 69.7882 4.79397L73.4346 5.08631C73.878 5.12185 74.0577 5.6751 73.7199 5.96444L70.9418 8.34425C70.7994 8.46623 70.7372 8.65762 70.7807 8.84L71.6295 12.3983C71.7327 12.8309 71.262 13.1728 70.8825 12.941L67.7606 11.0342C67.6006 10.9365 67.3994 10.9365 67.2394 11.0342L64.1175 12.941C63.738 13.1728 63.2673 12.8309 63.3705 12.3983L64.2193 8.84C64.2628 8.65762 64.2006 8.46623 64.0582 8.34425L61.2801 5.96444C60.9423 5.6751 61.122 5.12185 61.5654 5.08631L65.2118 4.79397C65.3987 4.77899 65.5615 4.6607 65.6335 4.48759L67.0383 1.10996Z" fill="#F7AA00"/>
<path id="Star 10" d="M87.0383 1.10996C87.2091 0.699319 87.7909 0.699318 87.9617 1.10996L89.3665 4.48759C89.4385 4.6607 89.6013 4.77899 89.7882 4.79397L93.4346 5.08631C93.878 5.12185 94.0577 5.6751 93.7199 5.96444L90.9418 8.34425C90.7994 8.46623 90.7372 8.65762 90.7807 8.84L91.6295 12.3983C91.7327 12.8309 91.262 13.1728 90.8825 12.941L87.7606 11.0342C87.6006 10.9365 87.3994 10.9365 87.2394 11.0342L84.1175 12.941C83.738 13.1728 83.2673 12.8309 83.3705 12.3983L84.2193 8.84C84.2628 8.65762 84.2006 8.46623 84.0582 8.34425L81.2801 5.96444C80.9423 5.6751 81.122 5.12185 81.5654 5.08631L85.2118 4.79397C85.3987 4.77899 85.5615 4.6607 85.6335 4.48759L87.0383 1.10996Z" fill="#F7AA00"/>
</g>
</svg>
