<svg width="130" height="36" viewBox="0 0 130 36" fill="none" xmlns="http://www.w3.org/2000/svg">
<g id="Logo">
<g id="Logo_2">
<path d="M106.168 9C107.11 9 107.526 9.456 107.414 10.368L107.246 11.64C107.134 12.44 106.655 12.84 105.808 12.84H104.083C103.156 12.84 102.749 12.384 102.86 11.472L103.028 10.2C103.108 9.4 103.579 9 104.442 9H106.168Z" fill="#1B62F8"/>
<path d="M106.791 14.376L105.137 26.304H100.799L102.453 14.376H106.791Z" fill="#1B62F8"/>
<path fill-rule="evenodd" clip-rule="evenodd" d="M56.1987 9.96C55.3359 9.688 54.1935 9.552 52.7716 9.552C51.8449 9.552 51.014 9.56 50.2791 9.576C49.5601 9.576 48.8811 9.592 48.242 9.624C47.6189 9.64 46.9798 9.68 46.3247 9.744L44 26.304C44.7509 26.352 45.4859 26.392 46.2049 26.424C46.9239 26.456 47.7147 26.472 48.5775 26.472C49.4403 26.488 50.4628 26.496 51.6452 26.496C52.9872 26.496 54.0897 26.384 54.9525 26.16C55.8152 25.92 56.4783 25.504 56.9416 24.912C57.405 24.304 57.7165 23.448 57.8763 22.344C58.068 21 57.9402 19.936 57.4928 19.152C57.0455 18.352 56.1827 17.896 54.9045 17.784L54.9285 17.64C56.0469 17.544 56.8458 17.208 57.3251 16.632C57.8204 16.056 58.1479 15.192 58.3077 14.04C58.4515 12.872 58.3556 11.968 58.0201 11.328C57.6846 10.672 57.0774 10.216 56.1987 9.96ZM52.6038 12.744C53.2269 12.744 53.6343 12.856 53.8261 13.08C54.0338 13.288 54.0977 13.704 54.0178 14.328C53.89 15.144 53.6743 15.68 53.3707 15.936C53.0831 16.192 52.5638 16.32 51.8129 16.32H49.7998L50.3031 12.744H52.6038ZM49.3923 19.128H51.717C52.4999 19.128 53.0032 19.256 53.2269 19.512C53.4506 19.768 53.5065 20.304 53.3947 21.12C53.2988 21.712 53.163 22.168 52.9872 22.488C52.8275 22.808 52.5718 23.024 52.2203 23.136C51.8688 23.248 51.3975 23.304 50.8063 23.304H48.8172L49.3923 19.128Z" fill="#1B62F8"/>
<path fill-rule="evenodd" clip-rule="evenodd" d="M70.445 14.544C69.5982 14.208 68.3919 14.04 66.8261 14.04C65.4201 14.04 64.2218 14.208 63.2312 14.544C62.2406 14.864 61.4577 15.472 60.8825 16.368C60.3074 17.248 59.9239 18.528 59.7322 20.208C59.5884 21.6 59.6683 22.768 59.9718 23.712C60.2754 24.656 60.8905 25.376 61.8172 25.872C62.7439 26.352 64.062 26.592 65.7716 26.592C66.6663 26.592 67.601 26.52 68.5756 26.376C69.5662 26.232 70.4609 25.984 71.2598 25.632L70.9483 22.944C70.4849 22.992 69.9417 23.04 69.3186 23.088C68.7114 23.12 68.1203 23.152 67.5451 23.184C66.9859 23.2 66.5305 23.208 66.179 23.208C65.492 23.208 64.9887 23.12 64.6692 22.944C64.3496 22.752 64.1819 22.32 64.1659 21.648L67.4492 21.384C69.015 21.272 70.1893 21.016 70.9722 20.616C71.7711 20.2 72.2504 19.448 72.4102 18.36C72.554 17.416 72.4741 16.624 72.1705 15.984C71.8829 15.344 71.3077 14.864 70.445 14.544ZM65.6038 17.16C65.9074 17.016 66.3068 16.944 66.8021 16.944C67.4093 16.928 67.8167 16.984 68.0244 17.112C68.2321 17.24 68.304 17.512 68.2401 17.928C68.1762 18.44 68.0004 18.768 67.7128 18.912C67.4252 19.056 67.0019 19.152 66.4426 19.2L64.4295 19.416C64.5573 18.744 64.7091 18.232 64.8849 17.88C65.0766 17.528 65.3162 17.288 65.6038 17.16Z" fill="#1B62F8"/>
<path d="M79.5311 14.04C80.1382 14.056 80.8013 14.088 81.5202 14.136C82.2392 14.168 82.9342 14.224 83.6053 14.304C84.2763 14.384 84.8435 14.472 85.3069 14.568L84.9474 17.136H82.5987C81.8318 17.12 81.0809 17.112 80.3459 17.112C79.4672 17.112 78.876 17.136 78.5724 17.184C78.2689 17.216 78.1011 17.344 78.0691 17.568C78.0372 17.776 78.1091 17.936 78.2848 18.048C78.4766 18.16 78.8121 18.296 79.2914 18.456L82.0715 19.32C83.0301 19.608 83.7331 20.048 84.1805 20.64C84.6438 21.232 84.8196 22.016 84.7077 22.992C84.5799 24.016 84.2683 24.784 83.773 25.296C83.2778 25.808 82.6067 26.144 81.7599 26.304C80.9131 26.48 79.9145 26.568 78.7642 26.568C77.9333 26.568 77.0546 26.536 76.1279 26.472C75.2172 26.408 74.1707 26.28 72.9883 26.088L73.3718 23.496C73.6115 23.512 73.955 23.52 74.4023 23.52H77.3262C78.189 23.52 78.844 23.504 79.2914 23.472C79.7388 23.44 80.0503 23.384 80.2261 23.304C80.4018 23.208 80.4977 23.08 80.5137 22.92C80.5456 22.712 80.4657 22.56 80.274 22.464C80.0983 22.368 79.7308 22.232 79.1716 22.056L76.4874 21.168C75.4329 20.832 74.7059 20.336 74.3065 19.68C73.923 19.008 73.7952 18.192 73.923 17.232C74.0349 16.528 74.2745 15.944 74.642 15.48C75.0255 15 75.6086 14.64 76.3915 14.4C77.1744 14.16 78.2209 14.04 79.5311 14.04Z" fill="#1B62F8"/>
<path d="M91.2046 16.608L91.1566 14.376H87.7295L86.0758 26.304H90.4376L91.4442 19.056C92.0514 18.592 92.5706 18.264 93.002 18.072C93.4494 17.864 93.8568 17.752 94.2243 17.736C94.5917 17.704 94.8314 17.776 94.9433 17.952C95.0551 18.112 95.0791 18.408 95.0152 18.84L93.9606 26.304H98.3225L99.5687 17.448C99.7285 16.328 99.5048 15.48 98.8976 14.904C98.3065 14.328 97.5156 14.04 96.525 14.04C95.6463 14.04 94.7355 14.272 93.7929 14.736C92.8662 15.184 92.0034 15.808 91.2046 16.608Z" fill="#1B62F8"/>
<path d="M113.454 16.392L114.388 9.504H110.027L107.678 26.304H112.04L112.567 22.632C112.583 22.504 112.591 22.36 112.591 22.2C112.831 22.12 113.078 22.04 113.334 21.96L114.101 21.672L116.186 26.304H120.668L118.463 21.624C118.335 21.336 118.175 21.064 117.983 20.808C117.792 20.536 117.552 20.288 117.264 20.064C118.191 19.44 119.014 18.672 119.733 17.76C120.468 16.848 121.003 15.72 121.339 14.376H116.857C116.617 15.384 116.09 16.328 115.275 17.208C114.46 18.072 113.526 18.768 112.471 19.296C112.711 18.816 112.911 18.344 113.07 17.88C113.23 17.4 113.358 16.904 113.454 16.392Z" fill="#1B62F8"/>
<path d="M127.004 27C128.659 27 130 25.6569 130 24C130 22.3431 128.659 21 127.004 21C125.35 21 124.009 22.3431 124.009 24C124.009 25.6569 125.35 27 127.004 27Z" fill="#1B62F8"/>
</g>
<g id="Logo_3">
<circle id="Ellipse 1" cx="18" cy="18" r="18" fill="#1B62F8"/>
<path id="Ellipse 28" d="M5.27208 30.7279C1.89642 27.3523 1.51746e-07 22.7739 0 18C-1.51746e-07 13.2261 1.89642 8.64773 5.27208 5.27208C8.64773 1.89642 13.2261 5.12165e-07 18 0C22.7739 -5.12165e-07 27.3523 1.89642 30.7279 5.27208L5.27208 30.7279Z" fill="#074EE4"/>
<g id="Intersect">
<path d="M13.5773 0.547288C13.9902 0.442966 14.4088 0.352912 14.8325 0.27768C13.4581 2.8712 12.1484 6.86002 12.5866 10.4753C12.8055 12.281 13.458 13.9788 14.7424 15.3757C16.0269 16.7728 17.9773 17.9057 20.8559 18.5226C28.2999 20.1177 31.9337 22.8102 33.2214 25.6716C33.4099 26.0904 33.5463 26.5087 33.6367 26.9228C33.3691 27.3909 33.081 27.8458 32.7737 28.2863C32.7833 27.568 32.6432 26.8237 32.3095 26.082C31.2207 23.6624 27.9892 21.0738 20.6464 19.5004C17.6103 18.8498 15.4591 17.6327 14.0062 16.0526C12.5533 14.4723 11.8327 12.5659 11.5939 10.5956C11.163 7.04058 12.2927 3.23106 13.5773 0.547288Z" fill="#2F76FF"/>
<path d="M10.4788 1.6419C11.1695 1.32378 11.8838 1.04811 12.6184 0.818249C10.5012 2.87612 8.10529 6.1075 7.30224 9.55186C6.8785 11.3693 6.90144 13.2299 7.62396 15.014C8.34613 16.7972 9.78596 18.5505 12.2765 20.1219C18.7252 24.1909 21.2029 28.0196 21.4173 31.2067C21.545 33.1049 20.8666 34.702 19.8414 35.9068C19.3473 35.957 18.8474 35.9872 18.3423 35.9966C19.6198 34.912 20.5545 33.2786 20.4196 31.2739C20.2375 28.5677 18.0971 24.977 11.7429 20.9677C9.11217 19.3078 7.5128 17.4036 6.69708 15.3894C5.88172 13.376 5.86808 11.299 6.32836 9.3248C7.00493 6.42293 8.71214 3.70876 10.4788 1.6419Z" fill="#2F76FF"/>
<path d="M14.9435 35.7412C13.4421 33.9334 10.5477 32.163 5.45938 30.9117C5.03312 30.4977 4.6273 30.0626 4.24358 29.6084C4.3013 29.6213 4.35941 29.6341 4.41791 29.6466C11.0985 31.0781 14.7103 33.3935 16.3116 35.9216C15.8503 35.8787 15.394 35.8183 14.9435 35.7412Z" fill="#2F76FF"/>
<path d="M17.0289 35.974C17.3506 35.9911 17.6746 35.9998 18.0006 35.9998C18.0461 35.9998 18.0916 35.9996 18.1371 35.9993C18.862 34.4521 19.0747 32.5678 18.2214 30.6716C16.9337 27.8102 13.2999 25.1177 5.85589 23.5226C3.31777 22.9787 1.50125 22.0336 0.226562 20.86C0.309497 21.3794 0.414654 21.8914 0.541027 22.395C1.85809 23.3244 3.53907 24.0488 5.64636 24.5004C12.9892 26.0738 16.2207 28.6624 17.3095 31.082C18.0922 32.8215 17.8097 34.5755 17.0289 35.974Z" fill="#2F76FF"/>
<path d="M33.8832 9.52216C33.8496 9.51488 33.8159 9.50762 33.7821 9.50038C30.746 8.84979 28.5948 7.6327 27.142 6.05257C25.8746 4.67415 25.1645 3.0475 24.8452 1.34683C25.2324 1.50613 25.6128 1.67854 25.9859 1.86351C26.3248 3.14665 26.9289 4.34336 27.8781 5.37573C29.0389 6.63821 30.7435 7.68504 33.1855 8.3302C33.4327 8.71768 33.6655 9.11525 33.8832 9.52216Z" fill="#2F76FF"/>
<path d="M35.3881 13.327C35.529 13.8525 35.6467 14.3875 35.74 14.9308C33.9611 13.226 30.827 11.6105 25.6464 10.5004C22.6103 9.84979 20.4591 8.6327 19.0062 7.05257C17.5533 5.47233 16.8327 3.56587 16.5939 1.59563C16.5324 1.08806 16.5027 0.575306 16.5007 0.0613823C16.8315 0.0340902 17.1649 0.0157466 17.5006 0.0065918C17.5006 0.500028 17.5279 0.991013 17.5866 1.47529C17.8055 3.28098 18.458 4.9788 19.7424 6.37573C21.0269 7.77277 22.9773 8.90573 25.8559 9.52258C30.2728 10.4691 33.3482 11.8018 35.3881 13.327Z" fill="#2F76FF"/>
<path d="M15.9482 0.115508C15.5802 0.157273 15.2156 0.210133 14.8547 0.273745C14.2421 2.36573 13.8969 4.69947 14.1676 6.93278C14.4065 8.90302 15.127 10.8095 16.58 12.3897C18.0328 13.9699 20.184 15.1869 23.2201 15.8375C30.5629 17.411 33.7944 19.9996 34.8832 22.4191C35.0198 22.7226 35.1239 23.0265 35.1986 23.3289C35.3672 22.7842 35.5106 22.2285 35.6276 21.663C34.2078 18.9317 30.573 16.3905 23.4296 14.8597C20.551 14.2429 18.6006 13.1099 17.3161 11.7129C16.0317 10.316 15.3792 8.61814 15.1604 6.81245C14.8903 4.58397 15.2843 2.21357 15.9482 0.115508Z" fill="#2F76FF"/>
</g>
<path id="Union" fill-rule="evenodd" clip-rule="evenodd" d="M14.5 13C14.5 11.3431 13.1569 10 11.5 10V19.5C11.5 23.0899 14.4101 26 18 26C21.5899 26 24.5 23.0899 24.5 19.5C24.5 15.9101 21.5899 13 18 13H14.5ZM14.5 16H18C19.933 16 21.5 17.567 21.5 19.5C21.5 21.433 19.933 23 18 23C16.067 23 14.5 21.433 14.5 19.5V16Z" fill="white"/>
</g>
</g>
</svg>
